<svg xmlns="http://www.w3.org/2000/svg" viewBox="0 0 96 96"><g id="icon"><path d="M88.4,59.41H11.71a5.36,5.36,0,0,1-5.36-5.35V9a5.36,5.36,0,0,1,5.36-5.35H88.4A5.36,5.36,0,0,1,93.75,9V54.06A5.36,5.36,0,0,1,88.4,59.41ZM11.71,5.14A3.85,3.85,0,0,0,7.85,9V54.06a3.86,3.86,0,0,0,3.86,3.85H88.4a3.86,3.86,0,0,0,3.85-3.85V9A3.85,3.85,0,0,0,88.4,5.14Z"/><path d="M88.4,59.41H11.71a5.36,5.36,0,0,1-5.36-5.35V49.78A.76.76,0,0,1,7.1,49H93a.76.76,0,0,1,.75.75v4.28A5.36,5.36,0,0,1,88.4,59.41ZM7.85,50.53v3.53a3.86,3.86,0,0,0,3.86,3.85H88.4a3.86,3.86,0,0,0,3.85-3.85V50.53Z"/><path d="M60.61,68.31H39.49a.76.76,0,0,1-.75-.75v-8.9a.76.76,0,0,1,.75-.75H60.61a.75.75,0,0,1,.75.75v8.9A.75.75,0,0,1,60.61,68.31Zm-20.37-1.5H59.86v-7.4H40.24Z"/><path d="M65.16,75H35a.75.75,0,0,1-.75-.75V69.08a2.2,2.2,0,0,1,2.11-2.27H63.79a2.2,2.2,0,0,1,2.12,2.27v5.19A.76.76,0,0,1,65.16,75ZM35.7,73.52H64.41V69.08a.71.71,0,0,0-.62-.77H36.31a.7.7,0,0,0-.61.77Z"/><path d="M71.77,92.36H4.58a2.32,2.32,0,0,1-2-3.52L9.29,77.65a2.35,2.35,0,0,1,2-1.13H65.06a2.36,2.36,0,0,1,2,1.13l6.7,11.19a2.32,2.32,0,0,1-2,3.52ZM11.28,78a.82.82,0,0,0-.7.4L3.87,89.61a.84.84,0,0,0,0,.84.81.81,0,0,0,.72.41H71.77a.83.83,0,0,0,.71-1.25L65.77,78.42a.85.85,0,0,0-.71-.4Z"/><path d="M19.63,82.73H17.8a.75.75,0,1,1,0-1.5h1.83a.75.75,0,0,1,0,1.5Z"/><path d="M29.36,82.73H27.53a.75.75,0,0,1,0-1.5h1.83a.75.75,0,0,1,0,1.5Z"/><path d="M39.09,82.73H37.26a.75.75,0,0,1,0-1.5h1.83a.75.75,0,0,1,0,1.5Z"/><path d="M48.82,82.73H47a.75.75,0,1,1,0-1.5h1.83a.75.75,0,1,1,0,1.5Z"/><path d="M58.55,82.73H56.72a.75.75,0,1,1,0-1.5h1.83a.75.75,0,0,1,0,1.5Z"/><path d="M24.5,87.66H22.66a.75.75,0,1,1,0-1.5H24.5a.75.75,0,0,1,0,1.5Z"/><path d="M34.23,87.66H32.39a.75.75,0,0,1,0-1.5h1.84a.75.75,0,0,1,0,1.5Z"/><path d="M44,87.66H42.12a.75.75,0,0,1,0-1.5H44a.75.75,0,1,1,0,1.5Z"/><path d="M53.69,87.66H51.85a.75.75,0,1,1,0-1.5h1.84a.75.75,0,0,1,0,1.5Z"/><path d="M15.44,54.67H13.58a.75.75,0,1,1,0-1.5h1.86a.75.75,0,1,1,0,1.5Z"/><path d="M82.6,86.8a7.94,7.94,0,0,1-7.93-7.94v-4.6a7.94,7.94,0,1,1,15.87,0v4.6A8,8,0,0,1,82.6,86.8Zm0-19a6.44,6.44,0,0,0-6.43,6.44v4.6a6.44,6.44,0,1,0,12.87,0v-4.6A6.44,6.44,0,0,0,82.6,67.82Z"/><path d="M82.6,72.19a.76.76,0,0,1-.75-.75V67.07a.75.75,0,0,1,1.5,0v4.37A.75.75,0,0,1,82.6,72.19Z"/><path d="M48.81,42.12A14.87,14.87,0,1,1,63.69,27.24,14.88,14.88,0,0,1,48.81,42.12Zm0-28.24A13.37,13.37,0,1,0,62.19,27.24,13.38,13.38,0,0,0,48.81,13.88Z"/><path d="M23.88,32.77a.76.76,0,0,1-.75-.75V29.66a.75.75,0,0,1,1.5,0V32A.75.75,0,0,1,23.88,32.77Z"/><path d="M18.16,32.77a.75.75,0,0,1-.75-.75V20.19a.75.75,0,0,1,.75-.75h5.72a.75.75,0,0,1,.75.75v5.67a.75.75,0,0,1-1.5,0V20.94H18.91V32A.76.76,0,0,1,18.16,32.77Z"/><path d="M26.22,20.94H15.83a1.53,1.53,0,0,1-1.4-.88,1.55,1.55,0,0,1,.21-1.64l5.19-6.28a1.6,1.6,0,0,1,2.38,0l5.19,6.28a1.51,1.51,0,0,1,.21,1.64A1.53,1.53,0,0,1,26.22,20.94ZM21.06,13.1,15.8,19.37l10.42.07s0,0,0,0Z"/><path d="M73.76,23.6a.75.75,0,0,1-.75-.75V20.49a.75.75,0,1,1,1.5,0v2.36A.76.76,0,0,1,73.76,23.6Z"/><path d="M79.48,33.06H73.76a.74.74,0,0,1-.75-.75V26.64a.75.75,0,0,1,1.5,0v4.92h4.22V20.49a.75.75,0,1,1,1.5,0V32.31A.74.74,0,0,1,79.48,33.06Z"/><path d="M76.62,40.92a1.55,1.55,0,0,1-1.19-.55l-5.19-6.28a1.54,1.54,0,0,1,1.19-2.53H81.81A1.54,1.54,0,0,1,83,34.09l-5.19,6.28A1.56,1.56,0,0,1,76.62,40.92Zm-5.19-7.86s0,0,0,0l5.19,6.32,5.26-6.28Z"/><path d="M48.82,35.05A4.74,4.74,0,0,1,44,31.4a.75.75,0,0,1,.62-.86.74.74,0,0,1,.86.61,3.24,3.24,0,0,0,3.34,2.4A3.43,3.43,0,0,0,52,31.67a2.59,2.59,0,0,0-1-3.14A5.93,5.93,0,0,0,48.8,28a9.39,9.39,0,0,1-1.92-.36A4.2,4.2,0,0,1,44,23.73c0-2.36,2.19-4.27,4.87-4.27a4.78,4.78,0,0,1,4.77,3.39.75.75,0,0,1-.56.9.74.74,0,0,1-.9-.56A3.28,3.28,0,0,0,48.82,21c-1.86,0-3.37,1.24-3.37,2.77a2.69,2.69,0,0,0,1.89,2.48A8.11,8.11,0,0,0,49,26.5a7.07,7.07,0,0,1,2.74.72,4.12,4.12,0,0,1,1.68,5A4.92,4.92,0,0,1,48.82,35.05Z"/><path d="M48.82,21a.76.76,0,0,1-.75-.75v-2a.75.75,0,1,1,1.5,0v2A.75.75,0,0,1,48.82,21Z"/><path d="M48.82,37a.75.75,0,0,1-.75-.75v-2a.75.75,0,0,1,1.5,0v2A.74.74,0,0,1,48.82,37Z"/><path d="M71.35,75h-43a.75.75,0,0,1,0-1.5h43a.75.75,0,0,1,0,1.5Z"/></g></svg>