<?xml version="1.0" ?><svg xmlns="http://www.w3.org/2000/svg" xmlns:xlink="http://www.w3.org/1999/xlink" version="1.0" viewBox="0 0 48 48" enable-background="new 0 0 48 48" xml:space="preserve"><g id="Layer_1"/><g id="_x31_3_x5F_Investment"><path d="M23,16v-1c0-0.552,0.448-1,1-1s1,0.448,1,1v1c0,0.552-0.448,1-1,1S23,16.552,23,16z M16.929,19.343   c0.195,0.195,0.451,0.293,0.707,0.293s0.512-0.098,0.707-0.293c0.391-0.391,0.391-1.023,0-1.414l-0.708-0.708   c-0.391-0.391-1.023-0.391-1.414,0s-0.391,1.023,0,1.414L16.929,19.343z M15,24h-1c-0.552,0-1,0.448-1,1c0,0.553,0.448,1,1,1h1   c0.552,0,1-0.447,1-1C16,24.448,15.552,24,15,24z M16.929,33.071c0.256,0,0.512-0.098,0.707-0.293l0.708-0.707   c0.391-0.39,0.391-1.023,0-1.414c-0.391-0.391-1.024-0.391-1.415,0l-0.708,0.707c-0.391,0.39-0.391,1.023,0,1.414   C16.417,32.974,16.673,33.071,16.929,33.071z M24,33c-0.552,0-1,0.447-1,1v1c0,0.553,0.448,1,1,1s1-0.447,1-1v-1   C25,33.447,24.552,33,24,33z M29.657,32.071l0.707,0.707c0.195,0.195,0.451,0.293,0.707,0.293s0.512-0.098,0.707-0.293   c0.391-0.391,0.391-1.023,0-1.414l-0.707-0.707c-0.391-0.391-1.023-0.391-1.414,0S29.267,31.681,29.657,32.071z M33,26h1   c0.553,0,1-0.447,1-1c0-0.552-0.447-1-1-1h-1c-0.553,0-1,0.448-1,1C32,25.553,32.447,26,33,26z M30.364,19.636   c0.256,0,0.512-0.098,0.707-0.293l0.707-0.708c0.391-0.391,0.391-1.024,0-1.415c-0.391-0.39-1.023-0.39-1.414,0l-0.707,0.708   c-0.391,0.391-0.391,1.024,0,1.415C29.853,19.539,30.108,19.636,30.364,19.636z M22.5,23H27c0.553,0,1-0.448,1-1s-0.447-1-1-1h-2   v-1c0-0.552-0.448-1-1-1s-1,0.448-1,1v1h-0.5c-1.378,0-2.5,1.122-2.5,2.5s1.122,2.5,2.5,2.5h3c0.275,0,0.5,0.225,0.5,0.5   S25.775,27,25.5,27H21c-0.552,0-1,0.447-1,1s0.448,1,1,1h2v1c0,0.553,0.448,1,1,1s1-0.447,1-1v-1h0.5c1.379,0,2.5-1.121,2.5-2.5   S26.879,24,25.5,24h-3c-0.276,0-0.5-0.224-0.5-0.5S22.224,23,22.5,23z M8,27c-0.256,0-0.512-0.098-0.707-0.293l-2-2   c-0.391-0.391-0.391-1.023,0-1.414s1.023-0.391,1.414,0l0.361,0.361c0.527-6.68,4.926-12.273,10.953-14.548   C18.017,9.07,18,9.038,18,9V6c0-0.036,0.017-0.067,0.021-0.102c-0.001-0.005-0.005-0.008-0.006-0.013   c-0.138-0.535,0.183-1.081,0.718-1.219c3.421-0.885,7.113-0.885,10.536,0c0.535,0.138,0.856,0.684,0.718,1.219   c-0.001,0.005-0.005,0.008-0.006,0.013C29.983,5.933,30,5.964,30,6v3c0,0.034-0.016,0.063-0.019,0.096   c5.075,1.907,9.073,6.171,10.484,11.655c0.138,0.535-0.185,1.08-0.72,1.218c-0.525,0.137-1.079-0.184-1.218-0.719   C36.822,14.626,30.849,10,24,10c-7.768,0-14.174,5.936-14.925,13.51l0.218-0.218c0.391-0.391,1.023-0.391,1.414,0   s0.391,1.023,0,1.414l-2,2C8.512,26.902,8.256,27,8,27z M20,8.495C21.285,8.183,22.62,8,24,8c1.372,0,2.711,0.172,4,0.483V6.431   c-2.619-0.56-5.38-0.56-8,0V8.495z M42.707,25.293l-2-2c-0.391-0.391-1.023-0.391-1.414,0l-2,2c-0.391,0.391-0.391,1.023,0,1.414   s1.023,0.391,1.414,0l0.218-0.218C38.174,34.064,31.769,40,24,40c-6.849,0-12.823-4.626-14.528-11.249   c-0.138-0.535-0.681-0.856-1.218-0.72c-0.535,0.138-0.856,0.684-0.719,1.218C9.468,36.757,16.238,42,24,42   c8.92,0,16.242-6.909,16.932-15.654l0.361,0.361C41.488,26.902,41.744,27,42,27s0.512-0.098,0.707-0.293   C43.098,26.316,43.098,25.684,42.707,25.293z M7.997,14c0.304,0,0.604-0.138,0.8-0.399c1.342-1.787,2.971-3.31,4.84-4.529   c0.463-0.302,0.593-0.921,0.292-1.384c-0.301-0.463-0.921-0.593-1.384-0.292c-2.065,1.347-3.865,3.03-5.347,5.003   c-0.332,0.441-0.243,1.068,0.199,1.4C7.578,13.935,7.788,14,7.997,14z M34.363,9.072c1.87,1.22,3.499,2.744,4.839,4.529   C39.398,13.863,39.699,14,40.003,14c0.209,0,0.42-0.065,0.6-0.2c0.441-0.332,0.53-0.958,0.199-1.4   c-1.48-1.972-3.279-3.655-5.347-5.003c-0.459-0.301-1.08-0.172-1.384,0.291C33.77,8.151,33.9,8.77,34.363,9.072z"/></g></svg>