<?xml version="1.0" ?><svg xmlns="http://www.w3.org/2000/svg" xmlns:xlink="http://www.w3.org/1999/xlink" version="1.0" viewBox="0 0 48 48" enable-background="new 0 0 48 48" xml:space="preserve"><g id="Layer_1"/><g id="_x31__x5F_Money"><path d="M18,27.5c0-2.205,0.655-4.302,1.844-5.904c0.225-0.303,0.26-0.708,0.09-1.045C19.764,20.213,19.418,20,19.041,20H8   c-0.552,0-1,0.448-1,1v13c0,0.553,0.448,1,1,1h11.041c0.378,0,0.724-0.213,0.893-0.551c0.17-0.337,0.135-0.742-0.09-1.045   C18.655,31.802,18,29.705,18,27.5z M17.261,33H9V22h8.261C16.44,23.644,16,25.541,16,27.5S16.44,31.356,17.261,33z M41,20H29.959   c-0.378,0-0.724,0.213-0.894,0.551c-0.17,0.337-0.135,0.742,0.091,1.045C30.345,23.197,31,25.294,31,27.5s-0.655,4.303-1.844,5.903   c-0.226,0.304-0.261,0.708-0.091,1.046S29.581,35,29.959,35H41c0.553,0,1-0.447,1-1V21C42,20.448,41.553,20,41,20z M40,33h-8.261   C32.56,31.356,33,29.459,33,27.5s-0.44-3.856-1.261-5.5H40V33z M44,16H5c-1.103,0-2,0.897-2,2v19c0,1.103,0.897,2,2,2h39   c1.103,0,2-0.897,2-2V18C46,16.897,45.103,16,44,16z M5,37V18h39l0.002,19H5z M29,29.5c0,1.93-1.57,3.5-3.5,3.5H25v1   c0,0.553-0.448,1-1,1s-1-0.447-1-1v-1c-1.654,0-3-1.346-3-3c0-0.553,0.448-1,1-1s1,0.447,1,1c0,0.552,0.449,1,1,1h2.5   c0.827,0,1.5-0.673,1.5-1.5S26.327,28,25.5,28H23c-1.654,0-3-1.346-3-3s1.346-3,3-3h1v-1c0-0.552,0.448-1,1-1c0.553,0,1,0.448,1,1   v1c1.654,0,3,1.346,3,3c0,0.553-0.447,1-1,1s-1-0.447-1-1c0-0.551-0.448-1-1-1h-3c-0.551,0-1,0.449-1,1c0,0.552,0.449,1,1,1h2.5   C27.43,26,29,27.57,29,29.5z M14,26v3c0,0.553-0.448,1-1,1s-1-0.447-1-1v-3c0-0.553,0.448-1,1-1S14,25.447,14,26z M35,29v-3   c0-0.553,0.447-1,1-1s1,0.447,1,1v3c0,0.553-0.447,1-1,1S35,29.553,35,29z M7,13c0-0.552,0.448-1,1-1h33c0.553,0,1,0.448,1,1   s-0.447,1-1,1H8C7.448,14,7,13.552,7,13z M9,9c0-0.552,0.448-1,1-1h28c0.553,0,1,0.448,1,1s-0.447,1-1,1H10C9.448,10,9,9.552,9,9z"/></g></svg>