<?xml version="1.0" encoding="utf-8"?>
<!-- Generator: Adobe Illustrator 24.0.1, SVG Export Plug-In . SVG Version: 6.00 Build 0)  -->
<svg version="1.1" id="ico" xmlns="http://www.w3.org/2000/svg" xmlns:xlink="http://www.w3.org/1999/xlink" x="0px" y="0px"
	 width="50px" height="50px" viewBox="0 0 50 50" style="enable-background:new 0 0 50 50;" xml:space="preserve">
<path d="M8.612,13.297v17.122c0,1.817,1.479,3.296,3.296,3.296h1.586l0.012,5.635c0,0.255,0.15,0.486,0.382,0.591
	c0.086,0.039,0.177,0.059,0.268,0.059c0.154,0,0.307-0.056,0.428-0.161l6.993-6.123h16.514c1.817,0,3.296-1.479,3.296-3.296V13.297
	c0-1.817-1.479-3.296-3.296-3.296H11.908C10.091,10.001,8.612,11.479,8.612,13.297z M9.912,13.297c0-1.101,0.896-1.995,1.996-1.995
	h26.184c1.101,0,1.996,0.895,1.996,1.995v17.122c0,1.101-0.896,1.995-1.996,1.995H21.333c-0.158,0-0.31,0.058-0.428,0.161
	l-6.102,5.343l-0.011-4.854c0-0.358-0.292-0.649-0.65-0.649h-2.235c-1.101,0-1.996-0.895-1.996-1.995V13.297z M21.201,17.918
	c0-1.139,0.504-2.207,1.383-2.932c0.878-0.725,2.033-1.017,3.171-0.793c1.487,0.288,2.681,1.481,2.97,2.969
	c0.256,1.318-0.172,2.644-1.146,3.545c-0.169,0.156-0.329,0.3-0.481,0.437c-0.995,0.892-1.449,1.298-1.449,2.558
	c0,0.359-0.291,0.65-0.65,0.65s-0.65-0.291-0.65-0.65c0-1.84,0.83-2.584,1.881-3.526l0.466-0.422
	c0.641-0.593,0.922-1.47,0.752-2.343c-0.188-0.973-0.969-1.752-1.941-1.941c-0.765-0.148-1.509,0.036-2.096,0.521
	c-0.579,0.477-0.911,1.18-0.911,1.929c0,0.359-0.291,0.65-0.65,0.65S21.201,18.277,21.201,17.918z M25.65,25.734v1.038
	c0,0.359-0.291,0.65-0.65,0.65s-0.65-0.291-0.65-0.65v-1.038c0-0.359,0.291-0.65,0.65-0.65S25.65,25.375,25.65,25.734z"/>
</svg>
