<?xml version="1.0" standalone="no"?>
<!DOCTYPE svg PUBLIC "-//W3C//DTD SVG 20010904//EN"
 "http://www.w3.org/TR/2001/REC-SVG-20010904/DTD/svg10.dtd">
<svg version="1.0" xmlns="http://www.w3.org/2000/svg"
 width="500.000000pt" height="500.000000pt" viewBox="0 0 500.000000 500.000000"
 preserveAspectRatio="xMidYMid meet">

<g transform="translate(0.000000,500.000000) scale(0.100000,-0.100000)"
fill="#000000" stroke="none">
<path d="M1922 3163 c-30 -17 -265 -214 -382 -322 l-55 -50 138 -1 138 0 97
85 c56 49 130 102 174 125 83 44 97 64 79 112 -18 47 -50 68 -106 68 -29 0
-64 -7 -83 -17z"/>
<path d="M769 2589 c-23 -23 -22 -30 32 -182 54 -152 93 -238 155 -344 57 -97
74 -113 122 -113 38 0 56 22 76 95 10 33 37 95 62 138 l45 78 -45 50 c-25 27
-50 66 -56 85 l-12 36 -51 -71 -50 -71 -30 23 c-17 13 -59 74 -94 137 -35 62
-70 121 -79 131 -24 27 -53 30 -75 8z"/>
<path d="M1303 2568 c3 -7 22 -50 42 -95 34 -74 41 -83 64 -83 24 0 31 10 66
87 22 48 42 90 43 95 2 4 -7 8 -21 8 -21 0 -29 -10 -52 -65 -16 -36 -31 -65
-35 -65 -4 0 -20 29 -35 65 -24 55 -32 65 -53 65 -15 0 -22 -5 -19 -12z"/>
<path d="M1713 2568 c3 -7 22 -50 42 -95 34 -74 41 -83 64 -83 24 0 31 10 66
87 22 48 42 90 43 95 2 4 -7 8 -21 8 -21 0 -29 -10 -52 -65 -16 -36 -31 -65
-35 -65 -4 0 -20 29 -35 65 -24 55 -32 65 -53 65 -15 0 -22 -5 -19 -12z"/>
<path d="M1990 2575 c0 -3 16 -29 35 -58 25 -36 35 -63 35 -89 0 -34 3 -38 25
-38 22 0 25 4 25 33 0 18 11 48 23 67 13 19 32 47 42 63 l17 27 -29 0 c-24 0
-34 -7 -49 -35 -10 -19 -22 -35 -25 -35 -4 0 -17 16 -29 35 -15 24 -29 35 -46
35 -13 0 -24 -2 -24 -5z"/>
<path d="M2283 2570 c-12 -5 -26 -18 -32 -29 -12 -22 -15 -80 -5 -106 10 -25
59 -45 113 -45 72 0 81 6 81 51 0 35 -3 39 -25 39 -20 0 -25 -5 -25 -25 0 -22
-4 -25 -38 -25 -46 0 -62 14 -62 56 0 45 20 57 86 52 43 -4 57 -1 61 10 3 8 0
18 -8 23 -18 11 -117 10 -146 -1z"/>
<path d="M2548 2560 c-24 -19 -28 -29 -28 -74 0 -73 21 -91 105 -91 84 0 105
18 105 90 0 68 -20 87 -98 93 -47 3 -62 0 -84 -18z m116 -36 c19 -7 22 -64 4
-82 -13 -13 -56 -16 -82 -6 -20 7 -22 80 -3 87 18 8 63 8 81 1z"/>
<path d="M2810 2485 l0 -95 65 0 c69 0 118 17 129 45 3 9 6 32 6 50 0 18 -3
41 -6 50 -11 28 -60 45 -129 45 l-65 0 0 -95z m138 43 c7 -7 12 -27 12 -45 0
-37 -21 -53 -69 -53 -31 0 -31 0 -31 55 l0 55 38 0 c21 0 43 -5 50 -12z"/>
<path d="M3116 2517 c-61 -134 -60 -127 -30 -127 17 0 28 6 31 20 4 17 14 20
55 20 41 0 51 -3 55 -20 3 -13 14 -20 29 -20 13 0 24 3 24 7 0 4 -19 47 -42
95 -36 78 -44 88 -67 88 -22 -1 -30 -10 -55 -63z m62 -45 c-27 -5 -30 1 -17
34 l11 29 13 -30 c12 -27 12 -30 -7 -33z"/>
<path d="M1570 2469 c0 -18 5 -20 47 -17 36 2 49 7 51 21 3 14 -4 17 -47 17
-45 0 -51 -3 -51 -21z"/>
</g>
</svg>
